<?xml version="1.0" standalone="no"?><!DOCTYPE svg PUBLIC "-//W3C//DTD SVG 1.1//EN" "http://www.w3.org/Graphics/SVG/1.1/DTD/svg11.dtd"><svg t="1599226637071" class="icon" viewBox="0 0 1024 1024" version="1.1" xmlns="http://www.w3.org/2000/svg" p-id="2277" xmlns:xlink="http://www.w3.org/1999/xlink" width="128" height="128"><defs><style type="text/css"></style></defs><path d="M0 0h1024v1024H0z" fill="#FFFFFF" fill-opacity="0" p-id="2278"></path><path d="M713.708 168.318l10.435 12.078c8.674 10.04 7.588 25.218-2.426 33.917L379.031 512l342.686 297.687c10.014 8.699 11.1 23.877 2.426 33.917l-10.435 12.078c-8.594 9.947-23.549 11.124-33.583 2.713l-0.329-0.28-377.513-327.94c-10.023-8.707-11.1-23.903-2.406-33.94a24.043 24.043 0 0 1 2.406-2.41l377.513-327.94c9.922-8.619 24.891-7.649 33.626 2.108l0.286 0.325z" fill="#000000" p-id="2279"></path></svg>